<svg version="1.1" id="Layer_1" xmlns="http://www.w3.org/2000/svg" xmlns:xlink="http://www.w3.org/1999/xlink" x="0px" y="0px"
	 width="100%" viewBox="0 0 1179 377" enable-background="new 0 0 1179 377" xml:space="preserve">
<path fill="#FEFEFE" opacity="1.000000" stroke="none" 
	d="
M778.000000,378.000000 
	C518.666687,378.000000 259.833344,378.000000 1.000000,378.000000 
	C1.000000,252.333328 1.000000,126.666664 1.000000,1.000000 
	C394.000000,1.000000 787.000000,1.000000 1180.000000,1.000000 
	C1180.000000,126.666664 1180.000000,252.333328 1180.000000,378.000000 
	C1046.166626,378.000000 912.333313,378.000000 778.000000,378.000000 
M180.407288,83.645164 
	C160.944153,66.987389 138.344345,57.193001 113.225746,52.857452 
	C88.942528,48.666096 64.454834,50.216549 40.023483,50.173100 
	C39.769020,50.172646 39.513897,50.545197 39.415348,50.621937 
	C39.415348,63.135788 39.415348,75.518532 39.415348,88.097580 
	C54.644588,88.097580 69.461777,87.933578 84.273636,88.144104 
	C98.831070,88.351013 113.186226,90.341927 126.647476,96.124077 
	C132.778015,98.757393 138.354919,102.679604 143.546722,106.308731 
	C122.612289,118.909218 101.506744,131.235596 80.782898,144.173416 
	C48.366722,164.410690 47.463165,212.446838 79.460167,233.308456 
	C100.461060,247.000763 122.411568,259.236572 143.949112,272.815887 
	C143.123138,273.564880 142.391922,274.469360 141.456833,275.039398 
	C129.067459,282.592102 115.649033,287.822357 101.234612,288.759705 
	C82.665047,289.967285 64.005768,289.797791 45.384869,290.209503 
	C43.433987,290.252655 41.481323,290.215332 39.379173,290.215332 
	C39.379173,303.127686 39.379173,315.484344 39.379173,328.098999 
	C54.064171,328.098999 68.409348,328.758667 82.665253,327.913147 
	C96.867638,327.070770 111.211266,325.783020 125.078178,322.777039 
	C145.627563,318.322510 164.242401,309.136505 180.713669,294.825012 
	C195.013443,303.292297 209.369171,311.666931 223.595078,320.256561 
	C234.729767,326.979675 246.733551,329.810852 259.462494,327.557007 
	C286.340515,322.797913 303.981354,301.194977 303.992981,273.666870 
	C304.016449,218.219223 304.015259,162.771561 303.966522,107.323952 
	C303.963196,103.512077 303.675690,99.675819 303.192139,95.892845 
	C298.489197,59.098305 258.077881,38.667599 225.858139,57.004265 
	C210.689072,65.637177 195.920670,74.974121 180.407288,83.645164 
M815.995728,148.501465 
	C815.995728,154.333649 815.263733,160.280701 816.156982,165.972717 
	C817.733887,176.021698 814.463318,182.369247 804.492065,185.000107 
	C803.866333,185.165207 803.114441,185.457764 802.764709,185.940048 
	C801.980774,187.021378 801.413391,188.259659 800.560974,189.786438 
	C816.991455,189.786438 832.427246,189.786438 849.142639,189.786438 
	C847.642090,187.933472 846.958862,186.494705 845.821411,185.804199 
	C843.138000,184.175308 840.342590,182.609222 837.398926,181.561890 
	C833.873169,180.307434 832.891235,178.237045 832.913330,174.545059 
	C833.079895,146.718689 833.567261,118.873711 832.720337,91.072144 
	C832.393005,80.327644 834.151001,72.826805 845.472595,70.084656 
	C845.943481,69.970612 846.527588,69.749832 846.771362,69.386086 
	C847.374817,68.485527 847.811279,67.473152 848.543274,66.066833 
	C832.188293,66.066833 816.723694,66.066833 800.068787,66.066833 
	C804.108765,72.532089 811.478821,72.591194 815.649231,76.592018 
	C815.649231,91.367310 815.649231,105.944298 815.649231,120.491966 
	C794.379150,120.491966 773.456726,120.491966 752.092590,120.491966 
	C752.092590,110.445107 752.814758,100.588104 751.897156,90.886177 
	C750.904236,80.387589 753.169495,72.947067 764.350830,70.153206 
	C765.636658,69.831909 766.588135,68.172363 767.694641,67.133308 
	C767.446594,66.797348 767.198547,66.461395 766.950500,66.125435 
	C751.527588,66.125435 736.104614,66.125435 719.382080,66.125435 
	C720.952026,67.971298 721.671997,69.378075 722.821716,70.057426 
	C725.523560,71.653801 728.365784,73.061607 731.272400,74.249069 
	C734.432922,75.540260 735.533020,77.473053 735.510925,81.028229 
	C735.337036,109.021149 734.858582,137.032379 735.701416,165.000977 
	C736.016663,175.461426 734.047607,182.432068 723.341492,185.354706 
	C721.974670,185.727814 721.024597,187.627533 718.976501,189.764084 
	C736.154175,189.764084 751.565674,189.764084 768.284790,189.764084 
	C766.768799,187.889725 766.088074,186.451767 764.952820,185.763687 
	C762.260498,184.131729 759.453369,182.578491 756.505920,181.506927 
	C753.000610,180.232559 751.922791,178.180954 751.995178,174.449799 
	C752.247253,161.457474 752.084167,148.457245 752.104675,135.460052 
	C752.106873,134.039780 752.275269,132.619766 752.357056,131.348419 
	C773.798096,131.348419 794.730164,131.348419 815.995728,131.348419 
	C815.995728,136.899506 815.995728,142.200867 815.995728,148.501465 
M436.499969,65.902657 
	C421.216827,65.902657 405.933685,65.902657 389.039215,65.902657 
	C390.983398,67.982979 391.775085,69.287407 392.932953,69.977196 
	C395.635284,71.587105 398.433350,73.098793 401.342133,74.282997 
	C404.561127,75.593483 405.515472,77.622215 405.495422,81.107132 
	C405.336700,108.744339 404.942841,136.394638 405.642395,164.015030 
	C405.910950,174.618790 404.780334,182.750885 392.989349,185.675278 
	C391.780457,185.975067 390.955475,187.822937 389.265198,189.726196 
	C409.882874,189.726196 429.000214,189.774887 448.116821,189.677582 
	C451.250702,189.661636 454.438629,189.266998 457.504578,188.600937 
	C489.073944,181.742676 508.755005,158.551910 510.583771,126.193947 
	C512.137573,98.700821 497.329865,77.304138 471.085358,69.249809 
	C460.129272,65.887413 448.834473,65.622841 436.499969,65.902657 
M1053.003052,89.513390 
	C1050.883667,79.569061 1054.490845,73.092827 1064.499756,70.444588 
	C1065.282837,70.237404 1066.168701,69.874641 1066.673706,69.294266 
	C1067.358398,68.507118 1067.721313,67.439964 1068.440552,66.080597 
	C1052.097046,66.080597 1036.633057,66.080597 1019.878723,66.080597 
	C1021.389832,67.895279 1022.096802,69.263611 1023.219727,69.980530 
	C1025.311035,71.315697 1027.548096,72.572182 1029.896729,73.323822 
	C1034.992554,74.954651 1036.112305,78.184677 1036.052856,83.381348 
	C1035.743896,110.375786 1035.359619,137.392395 1036.181519,164.365341 
	C1036.506470,175.036057 1034.929565,182.621231 1023.536255,185.526169 
	C1022.304260,185.840317 1021.503967,187.847946 1019.902832,189.803619 
	C1036.910645,189.803619 1052.357544,189.803619 1069.106567,189.803619 
	C1067.546021,187.965256 1066.825195,186.569931 1065.679565,185.877716 
	C1063.126709,184.335236 1060.453003,182.894958 1057.660645,181.870193 
	C1053.802612,180.454300 1052.826172,177.988907 1052.901123,173.994385 
	C1053.163696,160.000366 1052.995850,145.998367 1053.013062,131.999451 
	C1053.015015,130.445938 1053.157227,128.892593 1053.258911,126.842766 
	C1054.235962,127.744690 1054.732300,128.155975 1055.175171,128.618286 
	C1073.840088,148.098953 1092.485474,167.598511 1111.195801,187.035400 
	C1112.384644,188.270340 1114.048462,189.820602 1115.535034,189.868683 
	C1123.961670,190.141220 1132.401733,190.000580 1140.837158,190.000580 
	C1141.077393,189.556808 1141.317505,189.113052 1141.557739,188.669281 
	C1140.415039,187.669830 1139.396484,186.453949 1138.105469,185.712814 
	C1134.688843,183.751556 1130.496826,182.674408 1127.779663,180.041687 
	C1115.338745,167.987335 1103.384155,155.432938 1091.079712,143.234894 
	C1084.007812,136.224121 1076.601685,129.550339 1070.319458,123.640633 
	C1081.650391,111.760284 1091.543091,100.682556 1102.220215,90.420822 
	C1110.469482,82.492432 1117.145996,72.259483 1129.436768,69.387794 
	C1130.216064,69.205688 1130.639526,67.500458 1131.482788,66.073486 
	C1117.687622,66.073486 1104.885132,66.073486 1091.341309,66.073486 
	C1093.793701,72.338661 1100.682739,71.560684 1103.159546,74.249466 
	C1086.796509,91.498581 1070.476440,108.702583 1054.156250,125.906593 
	C1053.771851,125.690018 1053.387451,125.473442 1053.003052,125.256866 
	C1053.003052,113.673958 1053.003052,102.091042 1053.003052,89.513390 
M971.279846,144.146240 
	C960.463501,117.755447 949.647156,91.364647 938.890198,65.118835 
	C930.381531,64.632805 930.344055,64.617226 927.398621,71.704079 
	C913.895813,104.193123 900.259705,136.628403 887.046936,169.235107 
	C884.074890,176.569397 880.985718,183.017502 872.770020,185.554459 
	C871.469177,185.956177 870.625610,187.838745 868.907410,189.789734 
	C883.942383,189.789734 897.380493,189.789734 912.425415,189.789734 
	C907.378113,183.697495 900.370667,183.674606 895.193848,180.048218 
	C899.463074,169.317123 903.659668,158.504272 908.168030,147.823013 
	C908.648010,146.685822 910.939270,145.721222 912.411133,145.691010 
	C921.739624,145.499512 931.074036,145.593628 940.406494,145.593613 
	C954.636597,145.593597 954.628418,145.596848 959.834595,158.737427 
	C962.681763,165.923782 965.561951,173.097076 968.413879,180.242813 
	C952.448730,187.336670 952.448730,187.336670 952.444519,189.813293 
	C967.741211,189.813293 983.037048,189.813293 998.332886,189.813293 
	C998.609009,189.450317 998.885193,189.087357 999.161377,188.724380 
	C997.841797,187.467285 996.604858,186.106827 995.186218,184.973709 
	C991.805298,182.273209 986.907471,180.391968 985.175476,176.909851 
	C980.015869,166.537140 976.085999,155.552750 971.279846,144.146240 
M639.874939,190.714432 
	C650.185059,191.941055 660.480835,192.623093 670.364136,188.460922 
	C683.561707,182.903030 692.507874,173.713135 693.941528,158.899506 
	C695.372253,144.115524 688.598633,133.683548 675.740601,126.854782 
	C669.724243,123.659592 663.598328,120.647850 657.741577,117.181976 
	C652.334961,113.982468 646.729675,110.834824 642.100586,106.675247 
	C635.916565,101.118362 635.611389,93.461334 637.820923,85.924774 
	C639.857422,78.978104 644.892151,74.648949 651.944580,73.269417 
	C663.612061,70.987152 676.710083,78.255272 681.457825,89.258774 
	C682.968445,92.759880 684.372192,96.317612 686.103027,99.707329 
	C686.680664,100.838417 688.125122,101.526886 690.099915,103.205223 
	C689.703857,96.442902 689.268250,91.164268 689.109192,85.877304 
	C688.664307,71.096085 687.959045,70.129730 673.700989,66.094116 
	C653.078918,60.257229 634.491394,66.690254 624.355103,83.172424 
	C615.834900,97.026726 618.981567,113.658699 632.463867,122.698372 
	C639.752930,127.585625 647.784790,131.358032 655.428711,135.725723 
	C660.609192,138.685806 666.147278,141.251312 670.737671,144.966583 
	C681.527649,153.699539 680.083252,172.184113 668.458984,179.348114 
	C655.003479,187.640686 632.130432,180.826202 625.506409,166.547607 
	C623.690186,162.632690 621.988403,158.660004 620.026306,154.820023 
	C619.372559,153.540665 618.070007,152.592865 617.064026,151.493500 
	C616.648621,151.750717 616.233215,152.007935 615.817810,152.265167 
	C616.462952,162.022537 617.045349,171.785095 617.850769,181.529236 
	C617.930664,182.495956 619.203796,183.821960 620.208496,184.179611 
	C626.444641,186.399612 632.762268,188.390549 639.874939,190.714432 
M555.746521,124.499435 
	C555.746521,137.996796 554.986450,151.551041 555.990906,164.973221 
	C556.771729,175.406677 554.525146,182.494629 543.719788,185.394821 
	C542.333984,185.766769 541.351746,187.642303 539.201172,189.811005 
	C556.458862,189.811005 571.897766,189.811005 588.926575,189.811005 
	C587.109863,187.755356 586.284912,186.287964 585.031677,185.516022 
	C582.494202,183.953125 579.820374,182.502350 577.026611,181.492767 
	C573.524780,180.227371 572.479248,178.155838 572.502258,174.422791 
	C572.675110,146.429230 573.111633,118.419609 572.325012,90.447090 
	C572.038330,80.251106 573.779846,73.197845 584.414246,70.502899 
	C585.189575,70.306412 586.084106,69.901230 586.542603,69.301857 
	C587.141724,68.518661 587.361084,67.444954 587.895813,66.119629 
	C571.825806,66.119629 556.400024,66.119629 539.600159,66.119629 
	C541.258972,67.960609 542.012573,69.300377 543.157959,69.968971 
	C546.025024,71.642548 548.983337,73.232071 552.067749,74.440094 
	C555.027527,75.599335 555.855286,77.409134 555.819458,80.508476 
	C555.653992,94.837151 555.746460,109.168808 555.746521,124.499435 
M786.373840,292.041931 
	C788.278625,304.910156 795.562134,312.934570 806.421814,314.106171 
	C815.291870,315.063171 823.608704,313.284454 831.450439,309.072327 
	C834.247620,307.569824 835.925293,305.660492 836.267883,302.184204 
	C836.858093,296.194977 837.063354,289.701599 844.430359,287.273499 
	C844.727661,287.175476 844.832092,286.492065 845.097412,285.931458 
	C837.519348,285.931458 830.146179,285.931458 822.772949,285.931458 
	C822.316956,286.270294 821.860962,286.609100 821.404907,286.947937 
	C832.454956,288.772522 828.778503,295.622894 827.916016,301.505066 
	C827.747559,302.653931 827.700867,303.874908 827.251221,304.912384 
	C826.835083,305.872772 826.130981,306.972565 825.251709,307.428101 
	C813.815369,313.354218 799.350342,306.836609 796.114014,294.352051 
	C794.127869,286.690247 794.885681,279.148163 797.507690,271.792694 
	C801.922180,259.408936 811.769897,252.675858 824.553955,253.110550 
	C831.574158,253.349258 835.224060,256.000824 837.549500,262.520782 
	C838.353027,264.773682 839.200562,267.010925 840.028015,269.255310 
	C840.477295,269.207825 840.926636,269.160309 841.375977,269.112823 
	C842.267334,263.839813 843.158691,258.566803 844.094238,253.032562 
	C830.636902,246.874390 817.404968,246.313156 804.909729,254.332138 
	C791.704224,262.807007 785.582397,275.401794 786.373840,292.041931 
M410.673553,254.122955 
	C399.469879,261.426422 393.635193,271.966217 392.096436,285.060944 
	C390.486755,298.759583 397.380341,310.551788 409.422333,313.362122 
	C418.978180,315.592285 428.572632,314.685211 437.677032,310.625641 
	C438.520905,310.249390 439.664001,309.595825 439.855499,308.859589 
	C441.064178,304.212646 442.043396,299.506012 443.098358,294.819061 
	C442.688293,294.636047 442.278198,294.453033 441.868103,294.270020 
	C439.832672,296.998596 437.898743,299.810516 435.741058,302.438721 
	C430.926331,308.303467 424.502319,310.717316 417.145905,309.763702 
	C410.085297,308.848480 405.518616,304.293030 403.128448,297.749664 
	C399.786774,288.601349 400.492096,279.464081 404.017395,270.518890 
	C408.577148,258.948975 417.388245,252.793594 428.685028,253.103546 
	C434.603699,253.265930 438.627258,256.304413 440.465637,261.890594 
	C441.394592,264.713409 442.456512,267.492432 443.458344,270.291260 
	C445.354889,265.562134 445.932434,261.046997 446.831390,256.596741 
	C447.349426,254.032364 446.750793,252.746231 444.210236,251.694931 
	C432.853180,246.995300 421.930298,247.505310 410.673553,254.122955 
M962.473877,299.988037 
	C964.831848,295.331848 967.189819,290.675659 970.035583,285.056305 
	C972.476990,294.103180 974.588013,302.057037 976.801575,309.982239 
	C977.122864,311.132660 977.935730,312.145782 978.521179,313.222412 
	C979.434937,312.402863 980.629272,311.747253 981.218872,310.738281 
	C986.830078,301.136963 992.405151,291.512665 997.812317,281.795776 
	C998.729126,280.148224 999.652832,277.694916 999.069885,276.200378 
	C998.035950,273.550140 995.849426,271.349548 994.145142,268.960785 
	C992.351379,270.529480 990.557617,272.098175 988.763916,273.666870 
	C989.353088,273.843781 989.942322,274.020660 990.531555,274.197571 
	C991.335815,276.482422 993.370178,279.215546 992.729431,280.973816 
	C990.083069,288.235809 986.626221,295.202423 983.467163,302.277588 
	C983.044617,302.087006 982.622070,301.896393 982.199524,301.705811 
	C979.640625,291.063751 977.081726,280.421722 974.522827,269.779694 
	C974.130371,269.785645 973.737915,269.791595 973.345459,269.797516 
	C968.567566,280.081757 963.789734,290.365967 958.459900,301.838379 
	C956.296753,290.070892 954.375122,279.617035 952.390747,268.821930 
	C947.420288,269.913757 942.849854,270.917725 938.279419,271.921692 
	C945.322327,273.107452 946.958313,277.795563 947.862122,283.709503 
	C949.214783,292.561371 951.166870,301.323303 952.953308,310.105286 
	C953.198608,311.311401 953.956604,312.413208 955.048889,314.826294 
	C957.863708,309.190857 959.996399,304.921051 962.473877,299.988037 
M536.976013,299.441467 
	C536.614807,302.400238 535.971436,305.357452 535.955078,308.318115 
	C535.926941,313.412750 539.104736,315.540985 543.909485,313.976685 
	C548.221191,312.572906 552.901611,305.621948 552.905823,300.173767 
	C551.911255,301.620728 551.321106,303.032135 550.273254,303.873810 
	C548.715942,305.124756 546.835022,305.972717 545.091858,306.992218 
	C544.754272,305.184387 543.928833,303.309601 544.166199,301.580719 
	C545.045776,295.174103 546.359009,288.828400 547.346680,282.434753 
	C548.089844,277.624664 547.836792,272.822906 543.050964,270.125336 
	C538.087646,267.327698 533.330200,269.112946 529.105042,272.193146 
	C526.652710,273.980927 524.519470,276.206299 521.815002,278.615814 
	C521.656311,275.014160 521.528564,272.113892 521.384644,268.847198 
	C516.636658,269.931213 512.314636,270.917969 506.954437,272.141785 
	C510.342621,273.740021 512.560730,274.786316 514.996948,275.935516 
	C512.847412,288.347107 510.719940,300.631622 508.565613,313.071106 
	C511.515350,313.071106 513.623779,313.071106 515.793091,313.071106 
	C517.217712,305.068207 519.157288,297.289093 519.836060,289.401428 
	C520.408203,282.751892 524.461548,279.227814 529.344604,276.437531 
	C531.436035,275.242462 535.151367,275.003082 537.145264,276.106628 
	C538.809875,277.027893 539.900208,280.603943 539.732300,282.893341 
	C539.346252,288.156219 538.038513,293.351501 536.976013,299.441467 
M572.007202,296.660156 
	C573.493652,290.575409 572.304443,283.587036 578.546021,279.149170 
	C582.129578,276.601227 585.574036,273.260071 590.162354,275.716766 
	C594.874878,278.239868 593.159729,282.993347 592.570129,286.953308 
	C591.616394,293.358765 589.923401,299.669495 589.254578,306.094330 
	C589.000000,308.540161 590.044067,312.621704 591.693054,313.390503 
	C593.818909,314.381561 597.996216,313.729187 599.770508,312.114716 
	C602.973816,309.199890 605.049805,305.046295 607.596558,301.410004 
	C607.124817,301.084534 606.653076,300.759064 606.181274,300.433594 
	C605.243103,301.725281 604.505859,303.259644 603.314941,304.246155 
	C601.881592,305.433411 600.062439,306.154877 598.410278,307.077972 
	C598.018005,305.261200 597.080872,303.365204 597.331299,301.641846 
	C598.238342,295.401611 599.576416,289.225159 600.689148,283.013367 
	C601.556396,278.171967 601.236938,273.412689 596.823669,270.435699 
	C592.240906,267.344391 587.455200,268.763885 583.263184,271.610870 
	C580.457397,273.516357 578.069031,276.036530 574.939941,278.764618 
	C574.939941,275.129364 574.939941,272.080505 574.939941,268.758423 
	C570.069885,269.887024 565.707642,270.897949 561.345398,271.908875 
	C568.198242,273.812897 568.411255,277.795380 567.082031,283.567932 
	C564.858582,293.223633 563.539368,303.087555 561.799316,313.094971 
	C564.385681,313.094971 566.522888,313.094971 569.007446,313.094971 
	C569.959351,307.921509 570.916443,302.719360 572.007202,296.660156 
M901.350281,273.778351 
	C895.232605,278.998627 891.830688,285.762299 891.202576,293.632446 
	C890.615051,300.993805 891.946716,308.047119 898.858704,312.429443 
	C904.427795,315.960266 913.990784,314.782501 919.917053,310.154083 
	C927.238770,304.435730 930.589722,296.541260 930.866577,287.620941 
	C931.249817,275.270294 923.404114,267.537598 912.321228,269.111328 
	C908.715881,269.623230 905.353271,271.844604 901.350281,273.778351 
M458.898010,303.319244 
	C463.390991,314.756592 476.150177,318.250214 486.202911,310.497528 
	C494.447510,304.139282 497.772980,295.423370 497.280273,285.069611 
	C496.710815,273.103027 487.586334,266.413147 476.001221,269.648804 
	C463.333191,273.186890 455.302856,288.466309 458.898010,303.319244 
M616.810242,308.479523 
	C620.924438,313.826080 626.784302,316.008789 633.086670,313.835602 
	C639.136902,311.749298 643.322388,307.433441 645.691467,301.440887 
	C640.255005,306.244446 634.858337,310.878601 627.043152,307.048279 
	C622.666443,304.903259 621.171875,298.749603 622.612122,292.285675 
	C629.546326,289.936096 636.260803,288.093018 642.600952,285.376251 
	C647.693787,283.193939 649.804565,278.456390 648.550598,274.606842 
	C647.214722,270.506165 643.334839,268.483459 637.564331,268.959229 
	C636.418457,269.053711 635.273438,269.325928 634.161011,269.634857 
	C619.912354,273.592041 611.049866,292.681732 616.810242,308.479523 
M716.249451,277.960632 
	C716.505493,275.014465 717.837463,273.670990 721.041565,274.033936 
	C723.945862,274.362915 726.916870,274.103455 729.788452,274.103455 
	C729.788452,272.425690 729.788452,271.330994 729.788452,269.891113 
	C725.795532,269.891113 722.015259,269.891113 717.978027,269.891113 
	C718.422119,266.507996 718.816406,263.504272 719.204346,260.548920 
	C714.036865,265.263885 709.091553,269.776093 704.480469,273.983368 
	C705.552917,274.060211 707.476685,274.198090 709.588562,274.349457 
	C707.785522,284.525421 705.982239,294.492950 704.262939,304.474945 
	C702.996338,311.828644 707.195801,315.954590 713.813660,313.959412 
	C719.054810,312.379333 724.779297,304.116302 724.890137,297.520844 
	C723.307617,299.785553 722.243774,302.101349 720.483948,303.599915 
	C718.775269,305.054840 716.352539,305.671143 714.243408,306.655701 
	C713.655090,304.419891 712.346802,302.095093 712.610046,299.964539 
	C713.485229,292.883514 714.925232,285.872314 716.249451,277.960632 
M681.450439,312.127197 
	C684.547302,308.751221 687.644104,305.375244 690.740967,301.999298 
	C690.336060,301.653381 689.931152,301.307465 689.526245,300.961548 
	C687.299988,302.873444 685.268921,305.097351 682.809448,306.636688 
	C676.349548,310.679840 669.085449,308.066895 667.576599,300.863281 
	C665.853210,292.635162 666.829407,284.607269 672.140991,277.639832 
	C676.748169,271.596497 682.229980,271.639557 686.851746,277.628906 
	C687.632568,278.640778 688.477661,279.602997 689.242798,280.527405 
	C694.916992,277.578400 695.481567,273.762238 690.291504,271.098419 
	C687.210815,269.517242 682.830078,268.938568 679.460327,269.728485 
	C667.817261,272.457764 658.649231,287.205872 659.717346,300.332947 
	C660.703857,312.457031 669.602600,317.600800 681.450439,312.127197 
M864.747131,311.999054 
	C865.949829,304.806946 867.044373,297.594604 868.381592,290.427582 
	C870.223083,280.557678 876.014282,276.265442 886.225281,278.242889 
	C886.033264,275.264618 885.863403,272.629456 885.693542,269.994293 
	C883.081177,270.193390 880.240723,269.832367 877.930542,270.773376 
	C876.163208,271.493256 875.012024,273.816803 873.688477,275.506622 
	C872.644165,276.839905 871.754700,278.294434 870.043457,280.795715 
	C870.043457,275.995392 870.043457,272.583008 870.043457,268.805054 
	C865.257263,269.919220 860.915710,270.929871 855.756897,272.130768 
	C859.037354,273.741852 861.355957,274.880554 863.657654,276.010925 
	C861.451538,288.597015 859.318909,300.764313 857.093201,313.462402 
	C859.845032,313.177368 862.106812,312.943085 864.747131,311.999054 
M1011.073486,303.079376 
	C1010.082397,303.030029 1009.041443,302.759766 1008.108887,302.970093 
	C1004.331421,303.822021 1002.779846,306.697540 1003.614868,310.030609 
	C1004.018799,311.642700 1006.523987,313.636566 1008.251099,313.819336 
	C1011.810974,314.195984 1013.617920,311.323151 1013.858521,308.149139 
	C1013.973572,306.631805 1012.538879,304.997009 1011.073486,303.079376 
M738.428223,314.005341 
	C739.636292,313.557556 741.607300,313.401093 741.910278,312.607605 
	C742.839783,310.173981 743.550598,307.472260 743.406982,304.927856 
	C743.364929,304.181427 739.603943,302.589478 738.577759,303.178864 
	C736.587524,304.321991 734.672913,306.514343 733.935425,308.682953 
	C733.060791,311.254608 734.523254,313.498749 738.428223,314.005341 
z"/>
<path fill="#F36F22" opacity="1.000000" stroke="none" 
	d="
M143.936798,272.124664 
	C122.411568,259.236572 100.461060,247.000763 79.460167,233.308456 
	C47.463165,212.446838 48.366722,164.410690 80.782898,144.173416 
	C101.506744,131.235596 122.612289,118.909218 144.202530,106.208847 
	C156.277100,112.570671 164.319122,122.102524 169.698441,133.945679 
	C147.179581,147.456940 124.947601,160.754013 102.774078,174.147873 
	C89.681664,182.056305 89.762924,196.408615 102.906715,204.340729 
	C123.235680,216.608994 143.591919,228.832199 163.967148,241.023438 
	C166.211960,242.366577 168.656525,243.375854 171.092010,244.845276 
	C172.683731,246.150482 174.146118,247.229034 175.707489,248.137466 
	C185.422577,253.789795 195.159836,259.404022 205.038681,265.342163 
	C217.277069,272.993103 229.424515,280.239532 241.430466,287.713287 
	C247.082199,291.231537 252.778976,292.640961 258.779419,289.118011 
	C264.823456,285.569489 266.937805,279.909393 266.931000,273.068542 
	C266.875305,217.090652 266.885284,161.112656 266.918152,105.134735 
	C266.922150,98.300270 264.666412,92.748627 258.570496,89.208160 
	C252.651749,85.770599 247.215668,87.227097 241.693420,90.598892 
	C229.630920,97.964058 217.402527,105.057533 204.926483,112.085449 
	C196.730942,102.603279 188.850815,93.297661 180.970703,83.992050 
	C195.920670,74.974121 210.689072,65.637177 225.858139,57.004265 
	C258.077881,38.667599 298.489197,59.098305 303.192139,95.892845 
	C303.675690,99.675819 303.963196,103.512077 303.966522,107.323952 
	C304.015259,162.771561 304.016449,218.219223 303.992981,273.666870 
	C303.981354,301.194977 286.340515,322.797913 259.462494,327.557007 
	C246.733551,329.810852 234.729767,326.979675 223.595078,320.256561 
	C209.369171,311.666931 195.013443,303.292297 180.175690,294.514069 
	C167.737427,286.843628 155.837112,279.484131 143.936798,272.124664 
z"/>
<path fill="#EFA93A" opacity="1.000000" stroke="none" 
	d="
M170.009888,133.772156 
	C164.319122,122.102524 156.277100,112.570671 144.520645,106.063080 
	C138.354919,102.679604 132.778015,98.757393 126.647476,96.124077 
	C113.186226,90.341927 98.831070,88.351013 84.273636,88.144104 
	C69.461777,87.933578 54.644588,88.097580 39.415348,88.097580 
	C39.415348,75.518532 39.415348,63.135788 39.415348,50.621937 
	C39.513897,50.545197 39.769020,50.172646 40.023483,50.173100 
	C64.454834,50.216549 88.942528,48.666096 113.225746,52.857452 
	C138.344345,57.193001 160.944153,66.987389 180.688995,83.818604 
	C188.850815,93.297661 196.730942,102.603279 204.941254,112.420059 
	C207.077194,116.473969 208.993515,119.965210 210.671249,123.567581 
	C224.222778,152.665070 227.192398,183.262222 222.732285,214.668457 
	C220.192245,232.554367 214.767273,249.636841 204.889740,265.030884 
	C195.159836,259.404022 185.422577,253.789795 175.707489,248.137466 
	C174.146118,247.229034 172.683731,246.150482 171.153839,244.460358 
	C185.097229,216.649460 186.820969,188.085571 180.079834,158.924774 
	C178.069672,150.229294 173.439590,142.139481 170.009888,133.772156 
z"/>
<path fill="#030303" opacity="1.000000" stroke="none" 
	d="
M815.995728,148.001846 
	C815.995728,142.200867 815.995728,136.899506 815.995728,131.348419 
	C794.730164,131.348419 773.798096,131.348419 752.357056,131.348419 
	C752.275269,132.619766 752.106873,134.039780 752.104675,135.460052 
	C752.084167,148.457245 752.247253,161.457474 751.995178,174.449799 
	C751.922791,178.180954 753.000610,180.232559 756.505920,181.506927 
	C759.453369,182.578491 762.260498,184.131729 764.952820,185.763687 
	C766.088074,186.451767 766.768799,187.889725 768.284790,189.764084 
	C751.565674,189.764084 736.154175,189.764084 718.976501,189.764084 
	C721.024597,187.627533 721.974670,185.727814 723.341492,185.354706 
	C734.047607,182.432068 736.016663,175.461426 735.701416,165.000977 
	C734.858582,137.032379 735.337036,109.021149 735.510925,81.028229 
	C735.533020,77.473053 734.432922,75.540260 731.272400,74.249069 
	C728.365784,73.061607 725.523560,71.653801 722.821716,70.057426 
	C721.671997,69.378075 720.952026,67.971298 719.382080,66.125435 
	C736.104614,66.125435 751.527588,66.125435 766.950500,66.125435 
	C767.198547,66.461395 767.446594,66.797348 767.694641,67.133308 
	C766.588135,68.172363 765.636658,69.831909 764.350830,70.153206 
	C753.169495,72.947067 750.904236,80.387589 751.897156,90.886177 
	C752.814758,100.588104 752.092590,110.445107 752.092590,120.491966 
	C773.456726,120.491966 794.379150,120.491966 815.649231,120.491966 
	C815.649231,105.944298 815.649231,91.367310 815.649231,76.592018 
	C811.478821,72.591194 804.108765,72.532089 800.068787,66.066833 
	C816.723694,66.066833 832.188293,66.066833 848.543274,66.066833 
	C847.811279,67.473152 847.374817,68.485527 846.771362,69.386086 
	C846.527588,69.749832 845.943481,69.970612 845.472595,70.084656 
	C834.151001,72.826805 832.393005,80.327644 832.720337,91.072144 
	C833.567261,118.873711 833.079895,146.718689 832.913330,174.545059 
	C832.891235,178.237045 833.873169,180.307434 837.398926,181.561890 
	C840.342590,182.609222 843.138000,184.175308 845.821411,185.804199 
	C846.958862,186.494705 847.642090,187.933472 849.142639,189.786438 
	C832.427246,189.786438 816.991455,189.786438 800.560974,189.786438 
	C801.413391,188.259659 801.980774,187.021378 802.764709,185.940048 
	C803.114441,185.457764 803.866333,185.165207 804.492065,185.000107 
	C814.463318,182.369247 817.733887,176.021698 816.156982,165.972717 
	C815.263733,160.280701 815.995728,154.333649 815.995728,148.001846 
z"/>
<path fill="#050505" opacity="1.000000" stroke="none" 
	d="
M436.999939,65.902657 
	C448.834473,65.622841 460.129272,65.887413 471.085358,69.249809 
	C497.329865,77.304138 512.137573,98.700821 510.583771,126.193947 
	C508.755005,158.551910 489.073944,181.742676 457.504578,188.600937 
	C454.438629,189.266998 451.250702,189.661636 448.116821,189.677582 
	C429.000214,189.774887 409.882874,189.726196 389.265198,189.726196 
	C390.955475,187.822937 391.780457,185.975067 392.989349,185.675278 
	C404.780334,182.750885 405.910950,174.618790 405.642395,164.015030 
	C404.942841,136.394638 405.336700,108.744339 405.495422,81.107132 
	C405.515472,77.622215 404.561127,75.593483 401.342133,74.282997 
	C398.433350,73.098793 395.635284,71.587105 392.932953,69.977196 
	C391.775085,69.287407 390.983398,67.982979 389.039215,65.902657 
	C405.933685,65.902657 421.216827,65.902657 436.999939,65.902657 
M443.276550,76.096863 
	C436.361237,76.096863 429.445953,76.096863 422.516693,76.096863 
	C422.516693,110.861908 422.516693,144.925369 422.516693,179.171005 
	C431.744476,179.171005 440.718018,179.483246 449.654266,179.041092 
	C454.217194,178.815338 458.916748,177.780380 463.204254,176.175415 
	C481.790009,169.218079 490.309570,154.668869 492.406464,135.765701 
	C495.487244,107.993027 483.617920,77.919830 443.276550,76.096863 
z"/>
<path fill="#020202" opacity="1.000000" stroke="none" 
	d="
M1053.003052,90.010757 
	C1053.003052,102.091042 1053.003052,113.673958 1053.003052,125.256866 
	C1053.387451,125.473442 1053.771851,125.690018 1054.156250,125.906593 
	C1070.476440,108.702583 1086.796509,91.498581 1103.159546,74.249466 
	C1100.682739,71.560684 1093.793701,72.338661 1091.341309,66.073486 
	C1104.885132,66.073486 1117.687622,66.073486 1131.482788,66.073486 
	C1130.639526,67.500458 1130.216064,69.205688 1129.436768,69.387794 
	C1117.145996,72.259483 1110.469482,82.492432 1102.220215,90.420822 
	C1091.543091,100.682556 1081.650391,111.760284 1070.319458,123.640633 
	C1076.601685,129.550339 1084.007812,136.224121 1091.079712,143.234894 
	C1103.384155,155.432938 1115.338745,167.987335 1127.779663,180.041687 
	C1130.496826,182.674408 1134.688843,183.751556 1138.105469,185.712814 
	C1139.396484,186.453949 1140.415039,187.669830 1141.557739,188.669281 
	C1141.317505,189.113052 1141.077393,189.556808 1140.837158,190.000580 
	C1132.401733,190.000580 1123.961670,190.141220 1115.535034,189.868683 
	C1114.048462,189.820602 1112.384644,188.270340 1111.195801,187.035400 
	C1092.485474,167.598511 1073.840088,148.098953 1055.175171,128.618286 
	C1054.732300,128.155975 1054.235962,127.744690 1053.258911,126.842766 
	C1053.157227,128.892593 1053.015015,130.445938 1053.013062,131.999451 
	C1052.995850,145.998367 1053.163696,160.000366 1052.901123,173.994385 
	C1052.826172,177.988907 1053.802612,180.454300 1057.660645,181.870193 
	C1060.453003,182.894958 1063.126709,184.335236 1065.679565,185.877716 
	C1066.825195,186.569931 1067.546021,187.965256 1069.106567,189.803619 
	C1052.357544,189.803619 1036.910645,189.803619 1019.902832,189.803619 
	C1021.503967,187.847946 1022.304260,185.840317 1023.536255,185.526169 
	C1034.929565,182.621231 1036.506470,175.036057 1036.181519,164.365341 
	C1035.359619,137.392395 1035.743896,110.375786 1036.052856,83.381348 
	C1036.112305,78.184677 1034.992554,74.954651 1029.896729,73.323822 
	C1027.548096,72.572182 1025.311035,71.315697 1023.219727,69.980530 
	C1022.096802,69.263611 1021.389832,67.895279 1019.878723,66.080597 
	C1036.633057,66.080597 1052.097046,66.080597 1068.440552,66.080597 
	C1067.721313,67.439964 1067.358398,68.507118 1066.673706,69.294266 
	C1066.168701,69.874641 1065.282837,70.237404 1064.499756,70.444588 
	C1054.490845,73.092827 1050.883667,79.569061 1053.003052,90.010757 
z"/>
<path fill="#EFA93A" opacity="1.000000" stroke="none" 
	d="
M143.942963,272.470276 
	C155.837112,279.484131 167.737427,286.843628 179.803955,294.484131 
	C164.242401,309.136505 145.627563,318.322510 125.078178,322.777039 
	C111.211266,325.783020 96.867638,327.070770 82.665253,327.913147 
	C68.409348,328.758667 54.064171,328.098999 39.379173,328.098999 
	C39.379173,315.484344 39.379173,303.127686 39.379173,290.215332 
	C41.481323,290.215332 43.433987,290.252655 45.384869,290.209503 
	C64.005768,289.797791 82.665047,289.967285 101.234612,288.759705 
	C115.649033,287.822357 129.067459,282.592102 141.456833,275.039398 
	C142.391922,274.469360 143.123138,273.564880 143.942963,272.470276 
z"/>
<path fill="#050505" opacity="1.000000" stroke="none" 
	d="
M971.477783,144.476776 
	C976.085999,155.552750 980.015869,166.537140 985.175476,176.909851 
	C986.907471,180.391968 991.805298,182.273209 995.186218,184.973709 
	C996.604858,186.106827 997.841797,187.467285 999.161377,188.724380 
	C998.885193,189.087357 998.609009,189.450317 998.332886,189.813293 
	C983.037048,189.813293 967.741211,189.813293 952.444519,189.813293 
	C952.448730,187.336670 952.448730,187.336670 968.413879,180.242813 
	C965.561951,173.097076 962.681763,165.923782 959.834595,158.737427 
	C954.628418,145.596848 954.636597,145.593597 940.406494,145.593613 
	C931.074036,145.593628 921.739624,145.499512 912.411133,145.691010 
	C910.939270,145.721222 908.648010,146.685822 908.168030,147.823013 
	C903.659668,158.504272 899.463074,169.317123 895.193848,180.048218 
	C900.370667,183.674606 907.378113,183.697495 912.425415,189.789734 
	C897.380493,189.789734 883.942383,189.789734 868.907410,189.789734 
	C870.625610,187.838745 871.469177,185.956177 872.770020,185.554459 
	C880.985718,183.017502 884.074890,176.569397 887.046936,169.235107 
	C900.259705,136.628403 913.895813,104.193123 927.398621,71.704079 
	C930.344055,64.617226 930.381531,64.632805 938.890198,65.118835 
	C949.647156,91.364647 960.463501,117.755447 971.477783,144.476776 
M948.915405,135.364182 
	C948.946838,134.259125 949.330322,133.014725 948.956543,132.070007 
	C943.835571,119.127220 938.618103,106.222534 933.395447,93.320206 
	C932.952332,92.225433 932.302979,91.214142 931.527222,89.742622 
	C925.362183,105.161652 919.433533,119.989624 913.266663,135.413284 
	C925.448608,135.413284 936.733826,135.413284 948.915405,135.364182 
z"/>
<path fill="#040404" opacity="1.000000" stroke="none" 
	d="
M639.463867,190.585968 
	C632.762268,188.390549 626.444641,186.399612 620.208496,184.179611 
	C619.203796,183.821960 617.930664,182.495956 617.850769,181.529236 
	C617.045349,171.785095 616.462952,162.022537 615.817810,152.265167 
	C616.233215,152.007935 616.648621,151.750717 617.064026,151.493500 
	C618.070007,152.592865 619.372559,153.540665 620.026306,154.820023 
	C621.988403,158.660004 623.690186,162.632690 625.506409,166.547607 
	C632.130432,180.826202 655.003479,187.640686 668.458984,179.348114 
	C680.083252,172.184113 681.527649,153.699539 670.737671,144.966583 
	C666.147278,141.251312 660.609192,138.685806 655.428711,135.725723 
	C647.784790,131.358032 639.752930,127.585625 632.463867,122.698372 
	C618.981567,113.658699 615.834900,97.026726 624.355103,83.172424 
	C634.491394,66.690254 653.078918,60.257229 673.700989,66.094116 
	C687.959045,70.129730 688.664307,71.096085 689.109192,85.877304 
	C689.268250,91.164268 689.703857,96.442902 690.099915,103.205223 
	C688.125122,101.526886 686.680664,100.838417 686.103027,99.707329 
	C684.372192,96.317612 682.968445,92.759880 681.457825,89.258774 
	C676.710083,78.255272 663.612061,70.987152 651.944580,73.269417 
	C644.892151,74.648949 639.857422,78.978104 637.820923,85.924774 
	C635.611389,93.461334 635.916565,101.118362 642.100586,106.675247 
	C646.729675,110.834824 652.334961,113.982468 657.741577,117.181976 
	C663.598328,120.647850 669.724243,123.659592 675.740601,126.854782 
	C688.598633,133.683548 695.372253,144.115524 693.941528,158.899506 
	C692.507874,173.713135 683.561707,182.903030 670.364136,188.460922 
	C660.480835,192.623093 650.185059,191.941055 639.463867,190.585968 
z"/>
<path fill="#060606" opacity="1.000000" stroke="none" 
	d="
M555.746521,123.999420 
	C555.746460,109.168808 555.653992,94.837151 555.819458,80.508476 
	C555.855286,77.409134 555.027527,75.599335 552.067749,74.440094 
	C548.983337,73.232071 546.025024,71.642548 543.157959,69.968971 
	C542.012573,69.300377 541.258972,67.960609 539.600159,66.119629 
	C556.400024,66.119629 571.825806,66.119629 587.895813,66.119629 
	C587.361084,67.444954 587.141724,68.518661 586.542603,69.301857 
	C586.084106,69.901230 585.189575,70.306412 584.414246,70.502899 
	C573.779846,73.197845 572.038330,80.251106 572.325012,90.447090 
	C573.111633,118.419609 572.675110,146.429230 572.502258,174.422791 
	C572.479248,178.155838 573.524780,180.227371 577.026611,181.492767 
	C579.820374,182.502350 582.494202,183.953125 585.031677,185.516022 
	C586.284912,186.287964 587.109863,187.755356 588.926575,189.811005 
	C571.897766,189.811005 556.458862,189.811005 539.201172,189.811005 
	C541.351746,187.642303 542.333984,185.766769 543.719788,185.394821 
	C554.525146,182.494629 556.771729,175.406677 555.990906,164.973221 
	C554.986450,151.551041 555.746521,137.996796 555.746521,123.999420 
z"/>
<path fill="#0A0A0A" opacity="1.000000" stroke="none" 
	d="
M786.283691,291.601044 
	C785.582397,275.401794 791.704224,262.807007 804.909729,254.332138 
	C817.404968,246.313156 830.636902,246.874390 844.094238,253.032562 
	C843.158691,258.566803 842.267334,263.839813 841.375977,269.112823 
	C840.926636,269.160309 840.477295,269.207825 840.028015,269.255310 
	C839.200562,267.010925 838.353027,264.773682 837.549500,262.520782 
	C835.224060,256.000824 831.574158,253.349258 824.553955,253.110550 
	C811.769897,252.675858 801.922180,259.408936 797.507690,271.792694 
	C794.885681,279.148163 794.127869,286.690247 796.114014,294.352051 
	C799.350342,306.836609 813.815369,313.354218 825.251709,307.428101 
	C826.130981,306.972565 826.835083,305.872772 827.251221,304.912384 
	C827.700867,303.874908 827.747559,302.653931 827.916016,301.505066 
	C828.778503,295.622894 832.454956,288.772522 821.404907,286.947937 
	C821.860962,286.609100 822.316956,286.270294 822.772949,285.931458 
	C830.146179,285.931458 837.519348,285.931458 845.097412,285.931458 
	C844.832092,286.492065 844.727661,287.175476 844.430359,287.273499 
	C837.063354,289.701599 836.858093,296.194977 836.267883,302.184204 
	C835.925293,305.660492 834.247620,307.569824 831.450439,309.072327 
	C823.608704,313.284454 815.291870,315.063171 806.421814,314.106171 
	C795.562134,312.934570 788.278625,304.910156 786.283691,291.601044 
z"/>
<path fill="#070707" opacity="1.000000" stroke="none" 
	d="
M410.999695,253.960083 
	C421.930298,247.505310 432.853180,246.995300 444.210236,251.694931 
	C446.750793,252.746231 447.349426,254.032364 446.831390,256.596741 
	C445.932434,261.046997 445.354889,265.562134 443.458344,270.291260 
	C442.456512,267.492432 441.394592,264.713409 440.465637,261.890594 
	C438.627258,256.304413 434.603699,253.265930 428.685028,253.103546 
	C417.388245,252.793594 408.577148,258.948975 404.017395,270.518890 
	C400.492096,279.464081 399.786774,288.601349 403.128448,297.749664 
	C405.518616,304.293030 410.085297,308.848480 417.145905,309.763702 
	C424.502319,310.717316 430.926331,308.303467 435.741058,302.438721 
	C437.898743,299.810516 439.832672,296.998596 441.868103,294.270020 
	C442.278198,294.453033 442.688293,294.636047 443.098358,294.819061 
	C442.043396,299.506012 441.064178,304.212646 439.855499,308.859589 
	C439.664001,309.595825 438.520905,310.249390 437.677032,310.625641 
	C428.572632,314.685211 418.978180,315.592285 409.422333,313.362122 
	C397.380341,310.551788 390.486755,298.759583 392.096436,285.060944 
	C393.635193,271.966217 399.469879,261.426422 410.999695,253.960083 
z"/>
<path fill="#090909" opacity="1.000000" stroke="none" 
	d="
M962.301514,300.319641 
	C959.996399,304.921051 957.863708,309.190857 955.048889,314.826294 
	C953.956604,312.413208 953.198608,311.311401 952.953308,310.105286 
	C951.166870,301.323303 949.214783,292.561371 947.862122,283.709503 
	C946.958313,277.795563 945.322327,273.107452 938.279419,271.921692 
	C942.849854,270.917725 947.420288,269.913757 952.390747,268.821930 
	C954.375122,279.617035 956.296753,290.070892 958.459900,301.838379 
	C963.789734,290.365967 968.567566,280.081757 973.345459,269.797516 
	C973.737915,269.791595 974.130371,269.785645 974.522827,269.779694 
	C977.081726,280.421722 979.640625,291.063751 982.199524,301.705811 
	C982.622070,301.896393 983.044617,302.087006 983.467163,302.277588 
	C986.626221,295.202423 990.083069,288.235809 992.729431,280.973816 
	C993.370178,279.215546 991.335815,276.482422 990.531555,274.197571 
	C989.942322,274.020660 989.353088,273.843781 988.763916,273.666870 
	C990.557617,272.098175 992.351379,270.529480 994.145142,268.960785 
	C995.849426,271.349548 998.035950,273.550140 999.069885,276.200378 
	C999.652832,277.694916 998.729126,280.148224 997.812317,281.795776 
	C992.405151,291.512665 986.830078,301.136963 981.218872,310.738281 
	C980.629272,311.747253 979.434937,312.402863 978.521179,313.222412 
	C977.935730,312.145782 977.122864,311.132660 976.801575,309.982239 
	C974.588013,302.057037 972.476990,294.103180 970.035583,285.056305 
	C967.189819,290.675659 964.831848,295.331848 962.301514,300.319641 
z"/>
<path fill="#0A0A0A" opacity="1.000000" stroke="none" 
	d="
M537.040466,299.007843 
	C538.038513,293.351501 539.346252,288.156219 539.732300,282.893341 
	C539.900208,280.603943 538.809875,277.027893 537.145264,276.106628 
	C535.151367,275.003082 531.436035,275.242462 529.344604,276.437531 
	C524.461548,279.227814 520.408203,282.751892 519.836060,289.401428 
	C519.157288,297.289093 517.217712,305.068207 515.793091,313.071106 
	C513.623779,313.071106 511.515350,313.071106 508.565613,313.071106 
	C510.719940,300.631622 512.847412,288.347107 514.996948,275.935516 
	C512.560730,274.786316 510.342621,273.740021 506.954437,272.141785 
	C512.314636,270.917969 516.636658,269.931213 521.384644,268.847198 
	C521.528564,272.113892 521.656311,275.014160 521.815002,278.615814 
	C524.519470,276.206299 526.652710,273.980927 529.105042,272.193146 
	C533.330200,269.112946 538.087646,267.327698 543.050964,270.125336 
	C547.836792,272.822906 548.089844,277.624664 547.346680,282.434753 
	C546.359009,288.828400 545.045776,295.174103 544.166199,301.580719 
	C543.928833,303.309601 544.754272,305.184387 545.091858,306.992188 
	C546.835022,305.972717 548.715942,305.124756 550.273254,303.873810 
	C551.321106,303.032135 551.911255,301.620728 552.905823,300.173767 
	C552.901611,305.621948 548.221191,312.572906 543.909485,313.976685 
	C539.104736,315.540985 535.926941,313.412750 535.955078,308.318115 
	C535.971436,305.357452 536.614807,302.400238 537.040466,299.007843 
z"/>
<path fill="#080808" opacity="1.000000" stroke="none" 
	d="
M571.940430,297.088684 
	C570.916443,302.719360 569.959351,307.921509 569.007446,313.094971 
	C566.522888,313.094971 564.385681,313.094971 561.799316,313.094971 
	C563.539368,303.087555 564.858582,293.223633 567.082031,283.567932 
	C568.411255,277.795380 568.198242,273.812897 561.345398,271.908875 
	C565.707642,270.897949 570.069885,269.887024 574.939941,268.758423 
	C574.939941,272.080505 574.939941,275.129364 574.939941,278.764618 
	C578.069031,276.036530 580.457397,273.516357 583.263184,271.610870 
	C587.455200,268.763885 592.240906,267.344391 596.823669,270.435699 
	C601.236938,273.412689 601.556396,278.171967 600.689148,283.013367 
	C599.576416,289.225159 598.238342,295.401611 597.331299,301.641846 
	C597.080872,303.365204 598.018005,305.261200 598.410278,307.077972 
	C600.062439,306.154877 601.881592,305.433411 603.314941,304.246155 
	C604.505859,303.259644 605.243103,301.725281 606.181274,300.433594 
	C606.653076,300.759064 607.124817,301.084534 607.596558,301.410004 
	C605.049805,305.046295 602.973816,309.199890 599.770508,312.114716 
	C597.996216,313.729187 593.818909,314.381561 591.693054,313.390503 
	C590.044067,312.621704 589.000000,308.540161 589.254578,306.094330 
	C589.923401,299.669495 591.616394,293.358765 592.570129,286.953308 
	C593.159729,282.993347 594.874878,278.239868 590.162354,275.716766 
	C585.574036,273.260071 582.129578,276.601227 578.546021,279.149170 
	C572.304443,283.587036 573.493652,290.575409 571.940430,297.088684 
z"/>
<path fill="#090909" opacity="1.000000" stroke="none" 
	d="
M901.614929,273.531250 
	C905.353271,271.844604 908.715881,269.623230 912.321228,269.111328 
	C923.404114,267.537598 931.249817,275.270294 930.866577,287.620941 
	C930.589722,296.541260 927.238770,304.435730 919.917053,310.154083 
	C913.990784,314.782501 904.427795,315.960266 898.858704,312.429443 
	C891.946716,308.047119 890.615051,300.993805 891.202576,293.632446 
	C891.830688,285.762299 895.232605,278.998627 901.614929,273.531250 
M900.130676,302.786835 
	C900.949890,306.537354 902.435120,310.488007 906.654541,310.427917 
	C909.909607,310.381561 913.263428,308.414337 916.310120,306.803375 
	C917.591431,306.125916 918.372986,304.250824 919.075928,302.774536 
	C922.628723,295.313446 923.127625,287.407501 921.550842,279.469482 
	C920.198181,272.659363 912.674194,270.090942 907.326233,274.808899 
	C904.617615,277.198486 902.118591,280.787048 901.379700,284.231415 
	C900.152161,289.954132 900.419739,295.997528 900.130676,302.786835 
z"/>
<path fill="#070707" opacity="1.000000" stroke="none" 
	d="
M458.815308,302.912659 
	C455.302856,288.466309 463.333191,273.186890 476.001221,269.648804 
	C487.586334,266.413147 496.710815,273.103027 497.280273,285.069611 
	C497.772980,295.423370 494.447510,304.139282 486.202911,310.497528 
	C476.150177,318.250214 463.390991,314.756592 458.815308,302.912659 
M466.241180,293.729065 
	C466.546844,297.186066 466.484222,300.725677 467.237183,304.082336 
	C468.669403,310.466766 475.040771,313.066223 480.293854,309.156891 
	C482.940277,307.187439 485.654602,304.122070 486.424286,301.069702 
	C487.940948,295.054840 488.559937,288.713165 488.697266,282.487823 
	C488.782745,278.611053 487.757782,274.410461 482.998413,272.981415 
	C478.575256,271.653290 473.502625,273.193939 471.121124,277.927612 
	C468.796509,282.548126 467.815643,287.844666 466.241180,293.729065 
z"/>
<path fill="#0A0A0A" opacity="1.000000" stroke="none" 
	d="
M616.610962,308.155884 
	C611.049866,292.681732 619.912354,273.592041 634.161011,269.634857 
	C635.273438,269.325928 636.418457,269.053711 637.564331,268.959229 
	C643.334839,268.483459 647.214722,270.506165 648.550598,274.606842 
	C649.804565,278.456390 647.693787,283.193939 642.600952,285.376251 
	C636.260803,288.093018 629.546326,289.936096 622.612122,292.285675 
	C621.171875,298.749603 622.666443,304.903259 627.043152,307.048279 
	C634.858337,310.878601 640.255005,306.244446 645.691467,301.440887 
	C643.322388,307.433441 639.136902,311.749298 633.086670,313.835602 
	C626.784302,316.008789 620.924438,313.826080 616.610962,308.155884 
M631.962524,273.213470 
	C626.338806,276.389374 623.861572,281.397736 622.831238,288.526184 
	C628.077820,286.859009 632.558289,285.766998 636.754333,283.999481 
	C640.266052,282.520111 642.313721,279.379456 641.005737,275.523529 
	C639.583313,271.330139 636.082275,271.856628 631.962524,273.213470 
z"/>
<path fill="#080808" opacity="1.000000" stroke="none" 
	d="
M716.199097,278.397461 
	C714.925232,285.872314 713.485229,292.883514 712.610046,299.964539 
	C712.346802,302.095093 713.655090,304.419891 714.243408,306.655701 
	C716.352539,305.671143 718.775269,305.054840 720.483948,303.599915 
	C722.243774,302.101349 723.307617,299.785553 724.890137,297.520844 
	C724.779297,304.116302 719.054810,312.379333 713.813660,313.959412 
	C707.195801,315.954590 702.996338,311.828644 704.262939,304.474945 
	C705.982239,294.492950 707.785522,284.525421 709.588562,274.349457 
	C707.476685,274.198090 705.552917,274.060211 704.480469,273.983368 
	C709.091553,269.776093 714.036865,265.263885 719.204346,260.548920 
	C718.816406,263.504272 718.422119,266.507996 717.978027,269.891113 
	C722.015259,269.891113 725.795532,269.891113 729.788452,269.891113 
	C729.788452,271.330994 729.788452,272.425690 729.788452,274.103455 
	C726.916870,274.103455 723.945862,274.362915 721.041565,274.033936 
	C717.837463,273.670990 716.505493,275.014465 716.199097,278.397461 
z"/>
<path fill="#080808" opacity="1.000000" stroke="none" 
	d="
M681.141113,312.332458 
	C669.602600,317.600800 660.703857,312.457031 659.717346,300.332947 
	C658.649231,287.205872 667.817261,272.457764 679.460327,269.728485 
	C682.830078,268.938568 687.210815,269.517242 690.291504,271.098419 
	C695.481567,273.762238 694.916992,277.578400 689.242798,280.527405 
	C688.477661,279.602997 687.632568,278.640778 686.851746,277.628906 
	C682.229980,271.639557 676.748169,271.596497 672.140991,277.639832 
	C666.829407,284.607269 665.853210,292.635162 667.576599,300.863281 
	C669.085449,308.066895 676.349548,310.679840 682.809448,306.636688 
	C685.268921,305.097351 687.299988,302.873444 689.526245,300.961548 
	C689.931152,301.307465 690.336060,301.653381 690.740967,301.999298 
	C687.644104,305.375244 684.547302,308.751221 681.141113,312.332458 
z"/>
<path fill="#080808" opacity="1.000000" stroke="none" 
	d="
M864.557861,312.353943 
	C862.106812,312.943085 859.845032,313.177368 857.093201,313.462402 
	C859.318909,300.764313 861.451538,288.597015 863.657654,276.010925 
	C861.355957,274.880554 859.037354,273.741852 855.756897,272.130768 
	C860.915710,270.929871 865.257263,269.919220 870.043457,268.805054 
	C870.043457,272.583008 870.043457,275.995392 870.043457,280.795715 
	C871.754700,278.294434 872.644165,276.839905 873.688477,275.506622 
	C875.012024,273.816803 876.163208,271.493256 877.930542,270.773376 
	C880.240723,269.832367 883.081177,270.193390 885.693542,269.994324 
	C885.863403,272.629456 886.033264,275.264618 886.225281,278.242889 
	C876.014282,276.265442 870.223083,280.557678 868.381592,290.427582 
	C867.044373,297.594604 865.949829,304.806946 864.557861,312.353943 
z"/>
<path fill="#0B0B0B" opacity="1.000000" stroke="none" 
	d="
M1011.439819,303.247375 
	C1012.538879,304.997009 1013.973572,306.631805 1013.858521,308.149139 
	C1013.617920,311.323151 1011.810974,314.195984 1008.251099,313.819336 
	C1006.523987,313.636566 1004.018799,311.642700 1003.614868,310.030609 
	C1002.779846,306.697540 1004.331421,303.822021 1008.108887,302.970093 
	C1009.041443,302.759766 1010.082397,303.030029 1011.439819,303.247375 
z"/>
<path fill="#040404" opacity="1.000000" stroke="none" 
	d="
M738.019836,314.000244 
	C734.523254,313.498749 733.060791,311.254608 733.935425,308.682953 
	C734.672913,306.514343 736.587524,304.321991 738.577759,303.178864 
	C739.603943,302.589478 743.364929,304.181427 743.406982,304.927856 
	C743.550598,307.472260 742.839783,310.173981 741.910278,312.607605 
	C741.607300,313.401093 739.636292,313.557556 738.019836,314.000244 
z"/>
<path fill="#FFFEFD" opacity="1.000000" stroke="none" 
	d="
M205.038681,265.342163 
	C214.767273,249.636841 220.192245,232.554367 222.732285,214.668457 
	C227.192398,183.262222 224.222778,152.665070 210.671249,123.567581 
	C208.993515,119.965210 207.077194,116.473969 205.256683,112.596619 
	C217.402527,105.057533 229.630920,97.964058 241.693420,90.598892 
	C247.215668,87.227097 252.651749,85.770599 258.570496,89.208160 
	C264.666412,92.748627 266.922150,98.300270 266.918152,105.134735 
	C266.885284,161.112656 266.875305,217.090652 266.931000,273.068542 
	C266.937805,279.909393 264.823456,285.569489 258.779419,289.118011 
	C252.778976,292.640961 247.082199,291.231537 241.430466,287.713287 
	C229.424515,280.239532 217.277069,272.993103 205.038681,265.342163 
z"/>
<path fill="#FFFEFD" opacity="1.000000" stroke="none" 
	d="
M169.698441,133.945679 
	C173.439590,142.139481 178.069672,150.229294 180.079834,158.924774 
	C186.820969,188.085571 185.097229,216.649460 171.070267,244.155060 
	C168.656525,243.375854 166.211960,242.366577 163.967148,241.023438 
	C143.591919,228.832199 123.235680,216.608994 102.906715,204.340729 
	C89.762924,196.408615 89.681664,182.056305 102.774078,174.147873 
	C124.947601,160.754013 147.179581,147.456940 169.698441,133.945679 
z"/>
<path fill="#FDFDFD" opacity="1.000000" stroke="none" 
	d="
M443.747803,76.118576 
	C483.617920,77.919830 495.487244,107.993027 492.406464,135.765701 
	C490.309570,154.668869 481.790009,169.218079 463.204254,176.175415 
	C458.916748,177.780380 454.217194,178.815338 449.654266,179.041092 
	C440.718018,179.483246 431.744476,179.171005 422.516693,179.171005 
	C422.516693,144.925369 422.516693,110.861908 422.516693,76.096863 
	C429.445953,76.096863 436.361237,76.096863 443.747803,76.118576 
z"/>
<path fill="#FBFBFB" opacity="1.000000" stroke="none" 
	d="
M948.467163,135.388733 
	C936.733826,135.413284 925.448608,135.413284 913.266663,135.413284 
	C919.433533,119.989624 925.362183,105.161652 931.527222,89.742622 
	C932.302979,91.214142 932.952332,92.225433 933.395447,93.320206 
	C938.618103,106.222534 943.835571,119.127220 948.956543,132.070007 
	C949.330322,133.014725 948.946838,134.259125 948.467163,135.388733 
z"/>
<path fill="#FBFBFB" opacity="1.000000" stroke="none" 
	d="
M900.094116,302.346375 
	C900.419739,295.997528 900.152161,289.954132 901.379700,284.231415 
	C902.118591,280.787048 904.617615,277.198486 907.326233,274.808899 
	C912.674194,270.090942 920.198181,272.659363 921.550842,279.469482 
	C923.127625,287.407501 922.628723,295.313446 919.075928,302.774536 
	C918.372986,304.250824 917.591431,306.125916 916.310120,306.803375 
	C913.263428,308.414337 909.909607,310.381561 906.654541,310.427917 
	C902.435120,310.488007 900.949890,306.537354 900.094116,302.346375 
z"/>
<path fill="#F9F9F9" opacity="1.000000" stroke="none" 
	d="
M466.243011,293.286743 
	C467.815643,287.844666 468.796509,282.548126 471.121124,277.927612 
	C473.502625,273.193939 478.575256,271.653290 482.998413,272.981415 
	C487.757782,274.410461 488.782745,278.611053 488.697266,282.487823 
	C488.559937,288.713165 487.940948,295.054840 486.424286,301.069702 
	C485.654602,304.122070 482.940277,307.187439 480.293854,309.156891 
	C475.040771,313.066223 468.669403,310.466766 467.237183,304.082336 
	C466.484222,300.725677 466.546844,297.186066 466.243011,293.286743 
z"/>
<path fill="#F5F5F5" opacity="1.000000" stroke="none" 
	d="
M632.329102,273.113068 
	C636.082275,271.856628 639.583313,271.330139 641.005737,275.523529 
	C642.313721,279.379456 640.266052,282.520111 636.754333,283.999481 
	C632.558289,285.766998 628.077820,286.859009 622.831238,288.526184 
	C623.861572,281.397736 626.338806,276.389374 632.329102,273.113068 
z"/>
</svg>